<svg width="154" height="32" viewBox="0 0 154 32" fill="none" xmlns="http://www.w3.org/2000/svg">
<rect x="14.9141" width="6.62857" height="23.5789" rx="3.31429" fill="url(#paint0_linear_1705_10)"/>
<rect x="22.3711" y="11.7891" width="6.62857" height="16.8421" rx="3.31429" fill="url(#paint1_linear_1705_10)"/>
<rect x="7.45703" y="5.89453" width="6.62857" height="26.1053" rx="3.31429" fill="url(#paint2_linear_1705_10)"/>
<rect y="12.6328" width="6.21429" height="14.3158" rx="3.10714" fill="url(#paint3_linear_1705_10)"/>
<path d="M39.559 13.255C38.658 13.255 37.7825 13.1218 36.9325 12.8555C36.0825 12.5892 35.3628 12.2038 34.7735 11.6995L36.0995 9.5915C36.3488 9.85783 36.6662 10.0873 37.0515 10.28C37.4368 10.4727 37.8477 10.6228 38.284 10.7305C38.726 10.8325 39.1538 10.8835 39.5675 10.8835C40.1512 10.8835 40.6243 10.7872 40.987 10.5945C41.3553 10.3962 41.5395 10.11 41.5395 9.736C41.5395 9.43 41.4063 9.17217 41.14 8.9625C40.8793 8.75283 40.3892 8.55167 39.6695 8.359L38.6495 8.07C37.4255 7.73 36.5443 7.26533 36.006 6.676C35.4677 6.08667 35.1985 5.37833 35.1985 4.551C35.1985 4.01833 35.3118 3.52817 35.5385 3.0805C35.7652 2.62717 36.0825 2.23617 36.4905 1.9075C36.8985 1.57317 37.3773 1.31533 37.927 1.134C38.4823 0.947 39.0858 0.8535 39.7375 0.8535C40.6385 0.8535 41.4743 0.986666 42.245 1.253C43.0213 1.51367 43.6447 1.87067 44.115 2.324L42.738 4.364C42.5227 4.13733 42.2563 3.939 41.939 3.769C41.6217 3.599 41.276 3.46583 40.902 3.3695C40.528 3.27317 40.1512 3.225 39.7715 3.225C39.3975 3.225 39.0717 3.27317 38.794 3.3695C38.5163 3.46583 38.2982 3.60467 38.1395 3.786C37.9865 3.96167 37.91 4.17133 37.91 4.415C37.91 4.61333 37.9667 4.7805 38.08 4.9165C38.199 5.04683 38.3945 5.1715 38.6665 5.2905C38.9442 5.4095 39.3182 5.53983 39.7885 5.6815L40.8255 5.9875C42.0438 6.3445 42.925 6.79217 43.469 7.3305C44.013 7.86883 44.285 8.56867 44.285 9.43C44.285 10.1837 44.0923 10.8495 43.707 11.4275C43.3217 11.9998 42.7748 12.4475 42.0665 12.7705C41.3638 13.0935 40.528 13.255 39.559 13.255ZM51.3599 13.255C50.4476 13.255 49.6033 13.0992 48.8269 12.7875C48.0563 12.4702 47.3848 12.031 46.8124 11.47C46.2401 10.909 45.7953 10.2517 45.4779 9.498C45.1663 8.74433 45.0104 7.92833 45.0104 7.05C45.0104 6.166 45.1663 5.34717 45.4779 4.5935C45.7953 3.83983 46.2401 3.1825 46.8124 2.6215C47.3848 2.0605 48.0563 1.62417 48.8269 1.3125C49.6033 1.00083 50.4476 0.844999 51.3599 0.844999C52.2779 0.844999 53.1223 1.00367 53.8929 1.321C54.6636 1.63833 55.3351 2.08033 55.9074 2.647C56.4798 3.21367 56.9218 3.87383 57.2334 4.6275C57.5508 5.3755 57.7094 6.183 57.7094 7.05C57.7094 7.92833 57.5508 8.74433 57.2334 9.498C56.9218 10.2517 56.4798 10.909 55.9074 11.47C55.3351 12.031 54.6636 12.4702 53.8929 12.7875C53.1223 13.0992 52.2779 13.255 51.3599 13.255ZM51.3599 10.603C51.8529 10.603 52.3034 10.5208 52.7114 10.3565C53.1251 10.1922 53.4849 9.95417 53.7909 9.6425C54.0969 9.33083 54.3321 8.95683 54.4964 8.5205C54.6664 8.0785 54.7514 7.58833 54.7514 7.05C54.7514 6.32467 54.6041 5.69567 54.3094 5.163C54.0204 4.63033 53.6181 4.2195 53.1024 3.9305C52.5924 3.63583 52.0116 3.4885 51.3599 3.4885C50.8726 3.4885 50.4221 3.5735 50.0084 3.7435C49.5948 3.90783 49.2349 4.14583 48.9289 4.4575C48.6286 4.76917 48.3934 5.14317 48.2234 5.5795C48.0534 6.01583 47.9684 6.506 47.9684 7.05C47.9684 7.76967 48.1158 8.39583 48.4104 8.9285C48.7051 9.46117 49.1074 9.87483 49.6174 10.1695C50.1331 10.4585 50.7139 10.603 51.3599 10.603ZM64.3002 13.255C63.1839 13.255 62.2461 13.034 61.4867 12.592C60.7331 12.15 60.1636 11.5437 59.7782 10.773C59.3929 9.99667 59.2002 9.107 59.2002 8.104V1.1H62.0222V8.206C62.0222 9.01633 62.2234 9.61983 62.6257 10.0165C63.0281 10.4075 63.5862 10.603 64.3002 10.603C65.0086 10.603 65.5611 10.4075 65.9577 10.0165C66.3601 9.61983 66.5612 9.01633 66.5612 8.206V1.1H69.3917V8.104C69.3917 9.10133 69.1991 9.98817 68.8137 10.7645C68.4284 11.5352 67.8561 12.1443 67.0967 12.592C66.3431 13.034 65.4109 13.255 64.3002 13.255ZM71.6245 13V1.1H74.4125L79.3085 8.393V1.1H82.0455V13H79.2575L74.353 5.605V13H71.6245ZM84.3459 13V1.1H88.4259C89.6612 1.1 90.7436 1.35217 91.6729 1.8565C92.6079 2.36083 93.3361 3.06067 93.8574 3.956C94.3787 4.84567 94.6394 5.877 94.6394 7.05C94.6394 7.934 94.4892 8.7415 94.1889 9.4725C93.8942 10.1978 93.4721 10.824 92.9224 11.351C92.3727 11.878 91.7182 12.286 90.9589 12.575C90.1996 12.8583 89.3552 13 88.4259 13H84.3459ZM87.1679 10.3735H88.2814C88.7914 10.3735 89.2532 10.3027 89.6669 10.161C90.0806 10.0193 90.4376 9.80683 90.7379 9.5235C91.0439 9.24017 91.2762 8.89167 91.4349 8.478C91.5992 8.06433 91.6814 7.58833 91.6814 7.05C91.6814 6.33033 91.5397 5.724 91.2564 5.231C90.9731 4.73233 90.5736 4.35833 90.0579 4.109C89.5479 3.854 88.9557 3.7265 88.2814 3.7265H87.1679V10.3735ZM101.878 13.255C100.648 13.255 99.5632 13.0028 98.6226 12.4985C97.6819 11.9942 96.9481 11.2802 96.4211 10.3565C95.8941 9.43283 95.6306 8.342 95.6306 7.084C95.6306 6.166 95.7836 5.32733 96.0896 4.568C96.4012 3.803 96.8376 3.14283 97.3986 2.5875C97.9652 2.03217 98.6311 1.60433 99.3961 1.304C100.167 0.997999 101.008 0.844999 101.921 0.844999C102.912 0.844999 103.745 0.969666 104.42 1.219C105.094 1.46833 105.703 1.8225 106.247 2.2815L104.836 4.602C104.507 4.262 104.111 4.00983 103.646 3.8455C103.181 3.6755 102.669 3.5905 102.108 3.5905C101.552 3.5905 101.056 3.67267 100.62 3.837C100.189 3.99567 99.8211 4.22517 99.5151 4.5255C99.2147 4.82583 98.9852 5.1885 98.8266 5.6135C98.6679 6.0385 98.5886 6.5145 98.5886 7.0415C98.5886 7.76683 98.7302 8.38733 99.0136 8.903C99.3026 9.41867 99.7134 9.81533 100.246 10.093C100.779 10.365 101.416 10.501 102.159 10.501C102.691 10.501 103.218 10.4217 103.74 10.263C104.267 10.0987 104.765 9.83517 105.236 9.4725L106.528 11.844C105.978 12.269 105.321 12.6118 104.556 12.8725C103.791 13.1275 102.898 13.255 101.878 13.255ZM107.73 13V1.1H110.552V5.5115H115.244V1.1H118.066V13H115.244V8.087H110.552V13H107.73ZM120.369 13V1.1H128.733V3.548H123.191V5.758H127.84V8.019H123.191V10.5265H128.801V13H120.369ZM136.158 13.255C134.928 13.255 133.843 13.0028 132.902 12.4985C131.961 11.9942 131.228 11.2802 130.701 10.3565C130.174 9.43283 129.91 8.342 129.91 7.084C129.91 6.166 130.063 5.32733 130.369 4.568C130.681 3.803 131.117 3.14283 131.678 2.5875C132.245 2.03217 132.911 1.60433 133.676 1.304C134.446 0.997999 135.288 0.844999 136.2 0.844999C137.192 0.844999 138.025 0.969666 138.699 1.219C139.373 1.46833 139.983 1.8225 140.527 2.2815L139.116 4.602C138.787 4.262 138.39 4.00983 137.926 3.8455C137.461 3.6755 136.948 3.5905 136.387 3.5905C135.832 3.5905 135.336 3.67267 134.9 3.837C134.469 3.99567 134.101 4.22517 133.795 4.5255C133.494 4.82583 133.265 5.1885 133.106 5.6135C132.947 6.0385 132.868 6.5145 132.868 7.0415C132.868 7.76683 133.01 8.38733 133.293 8.903C133.582 9.41867 133.993 9.81533 134.526 10.093C135.058 10.365 135.696 10.501 136.438 10.501C136.971 10.501 137.498 10.4217 138.019 10.263C138.546 10.0987 139.045 9.83517 139.515 9.4725L140.807 11.844C140.257 12.269 139.6 12.6118 138.835 12.8725C138.07 13.1275 137.178 13.255 136.158 13.255ZM142.01 13V1.1H144.832V6.1745L148.869 1.1H152.388L147.985 6.5655L152.958 13H149.328L146.124 8.699L144.832 10.1695V13H142.01Z" fill="white" fill-opacity="0.95"/>
<path d="M40.9105 29.255C39.6808 29.255 38.5957 29.0028 37.655 28.4985C36.7143 27.9942 35.9805 27.2802 35.4535 26.3565C34.9265 25.4328 34.663 24.342 34.663 23.084C34.663 22.166 34.816 21.3273 35.122 20.568C35.4337 19.803 35.87 19.1428 36.431 18.5875C36.9977 18.0322 37.6635 17.6043 38.4285 17.304C39.1992 16.998 40.0407 16.845 40.953 16.845C41.9447 16.845 42.7777 16.9697 43.452 17.219C44.1263 17.4683 44.7355 17.8225 45.2795 18.2815L43.8685 20.602C43.5398 20.262 43.1432 20.0098 42.6785 19.8455C42.2138 19.6755 41.701 19.5905 41.14 19.5905C40.5847 19.5905 40.0888 19.6727 39.6525 19.837C39.2218 19.9957 38.8535 20.2252 38.5475 20.5255C38.2472 20.8258 38.0177 21.1885 37.859 21.6135C37.7003 22.0385 37.621 22.5145 37.621 23.0415C37.621 23.7668 37.7627 24.3873 38.046 24.903C38.335 25.4187 38.7458 25.8153 39.2785 26.093C39.8112 26.365 40.4487 26.501 41.191 26.501C41.7237 26.501 42.2507 26.4217 42.772 26.263C43.299 26.0987 43.7977 25.8352 44.268 25.4725L45.56 27.844C45.0103 28.269 44.353 28.6118 43.588 28.8725C42.823 29.1275 41.9305 29.255 40.9105 29.255ZM45.4196 29L49.8651 17.1H53.1376L57.6256 29H54.4466L53.6051 26.586H49.3381L48.5136 29H45.4196ZM49.9756 24.2315H52.9506L51.4546 20.1175L49.9756 24.2315ZM58.571 29V17.1H63.3395C64.2291 17.1 65.0168 17.2558 65.7025 17.5675C66.3881 17.8735 66.9265 18.3212 67.3175 18.9105C67.7141 19.4998 67.9125 20.2082 67.9125 21.0355C67.9125 21.8742 67.7311 22.5853 67.3685 23.169C67.0058 23.7527 66.4788 24.1975 65.7875 24.5035C65.0961 24.8095 64.2575 24.9625 63.2715 24.9625H61.393V29H58.571ZM61.393 22.5995H63.2035C63.7985 22.5995 64.2603 22.4833 64.589 22.251C64.9233 22.013 65.0905 21.622 65.0905 21.078C65.0905 20.534 64.9176 20.1402 64.572 19.8965C64.232 19.6472 63.7815 19.5225 63.2205 19.5225H61.393V22.5995ZM69.2338 29V17.1H72.0558V29H69.2338ZM76.4428 29V19.6755H73.2723V17.1H82.4523V19.6755H79.2818V29H76.4428ZM81.5632 29L86.0087 17.1H89.2812L93.7692 29H90.5902L89.7487 26.586H85.4817L84.6572 29H81.5632ZM86.1192 24.2315H89.0942L87.5982 20.1175L86.1192 24.2315ZM94.7146 29V17.1H97.5366V26.4245H102.314V29H94.7146Z" fill="white" fill-opacity="0.95"/>
<defs>
<linearGradient id="paint0_linear_1705_10" x1="18.2283" y1="0" x2="18.2283" y2="23.5789" gradientUnits="userSpaceOnUse">
<stop stop-color="#EF2A5F"/>
<stop offset="0.435" stop-color="#F58357"/>
<stop offset="0.95" stop-color="#FFBB37"/>
</linearGradient>
<linearGradient id="paint1_linear_1705_10" x1="25.6854" y1="11.7891" x2="25.6854" y2="28.6312" gradientUnits="userSpaceOnUse">
<stop stop-color="#EF2A5F"/>
<stop offset="0.435" stop-color="#F58357"/>
<stop offset="0.95" stop-color="#FFBB37"/>
</linearGradient>
<linearGradient id="paint2_linear_1705_10" x1="10.7713" y1="5.89453" x2="10.7713" y2="31.9998" gradientUnits="userSpaceOnUse">
<stop stop-color="#EF2A5F"/>
<stop offset="0.435" stop-color="#F58357"/>
<stop offset="0.95" stop-color="#FFBB37"/>
</linearGradient>
<linearGradient id="paint3_linear_1705_10" x1="3.10714" y1="12.6328" x2="3.10714" y2="26.9486" gradientUnits="userSpaceOnUse">
<stop stop-color="#EF2A5F"/>
<stop offset="0.435" stop-color="#F58357"/>
<stop offset="0.95" stop-color="#FFBB37"/>
</linearGradient>
</defs>
</svg>
