<svg width="127" height="38" viewBox="0 0 127 38" fill="none" xmlns="http://www.w3.org/2000/svg">
<rect x="18" width="8" height="28" rx="4" fill="url(#paint0_linear_1705_10)"/>
<rect x="27" y="14" width="8" height="20" rx="4" fill="url(#paint1_linear_1705_10)"/>
<rect x="9" y="7" width="8" height="31" rx="4" fill="url(#paint2_linear_1705_10)"/>
<rect y="15" width="7.5" height="17" rx="3.75" fill="url(#paint3_linear_1705_10)"/>
<path d="M45.924 15.18C45.288 15.18 44.67 15.086 44.07 14.898C43.47 14.71 42.962 14.438 42.546 14.082L43.482 12.594C43.658 12.782 43.882 12.944 44.154 13.08C44.426 13.216 44.716 13.322 45.024 13.398C45.336 13.47 45.638 13.506 45.93 13.506C46.342 13.506 46.676 13.438 46.932 13.302C47.192 13.162 47.322 12.96 47.322 12.696C47.322 12.48 47.228 12.298 47.04 12.15C46.856 12.002 46.51 11.86 46.002 11.724L45.282 11.52C44.418 11.28 43.796 10.952 43.416 10.536C43.036 10.12 42.846 9.62 42.846 9.036C42.846 8.66 42.926 8.314 43.086 7.998C43.246 7.678 43.47 7.402 43.758 7.17C44.046 6.934 44.384 6.752 44.772 6.624C45.164 6.492 45.59 6.426 46.05 6.426C46.686 6.426 47.276 6.52 47.82 6.708C48.368 6.892 48.808 7.144 49.14 7.464L48.168 8.904C48.016 8.744 47.828 8.604 47.604 8.484C47.38 8.364 47.136 8.27 46.872 8.202C46.608 8.134 46.342 8.1 46.074 8.1C45.81 8.1 45.58 8.134 45.384 8.202C45.188 8.27 45.034 8.368 44.922 8.496C44.814 8.62 44.76 8.768 44.76 8.94C44.76 9.08 44.8 9.198 44.88 9.294C44.964 9.386 45.102 9.474 45.294 9.558C45.49 9.642 45.754 9.734 46.086 9.834L46.818 10.05C47.678 10.302 48.3 10.618 48.684 10.998C49.068 11.378 49.26 11.872 49.26 12.48C49.26 13.012 49.124 13.482 48.852 13.89C48.58 14.294 48.194 14.61 47.694 14.838C47.198 15.066 46.608 15.18 45.924 15.18ZM54.2541 15.18C53.6101 15.18 53.0141 15.07 52.4661 14.85C51.9221 14.626 51.4481 14.316 51.0441 13.92C50.6401 13.524 50.3261 13.06 50.1021 12.528C49.8821 11.996 49.7721 11.42 49.7721 10.8C49.7721 10.176 49.8821 9.598 50.1021 9.066C50.3261 8.534 50.6401 8.07 51.0441 7.674C51.4481 7.278 51.9221 6.97 52.4661 6.75C53.0141 6.53 53.6101 6.42 54.2541 6.42C54.9021 6.42 55.4981 6.532 56.0421 6.756C56.5861 6.98 57.0601 7.292 57.4641 7.692C57.8681 8.092 58.1801 8.558 58.4001 9.09C58.6241 9.618 58.7361 10.188 58.7361 10.8C58.7361 11.42 58.6241 11.996 58.4001 12.528C58.1801 13.06 57.8681 13.524 57.4641 13.92C57.0601 14.316 56.5861 14.626 56.0421 14.85C55.4981 15.07 54.9021 15.18 54.2541 15.18ZM54.2541 13.308C54.6021 13.308 54.9201 13.25 55.2081 13.134C55.5001 13.018 55.7541 12.85 55.9701 12.63C56.1861 12.41 56.3521 12.146 56.4681 11.838C56.5881 11.526 56.6481 11.18 56.6481 10.8C56.6481 10.288 56.5441 9.844 56.3361 9.468C56.1321 9.092 55.8481 8.802 55.4841 8.598C55.1241 8.39 54.7141 8.286 54.2541 8.286C53.9101 8.286 53.5921 8.346 53.3001 8.466C53.0081 8.582 52.7541 8.75 52.5381 8.97C52.3261 9.19 52.1601 9.454 52.0401 9.762C51.9201 10.07 51.8601 10.416 51.8601 10.8C51.8601 11.308 51.9641 11.75 52.1721 12.126C52.3801 12.502 52.6641 12.794 53.0241 13.002C53.3881 13.206 53.7981 13.308 54.2541 13.308ZM63.3884 15.18C62.6004 15.18 61.9384 15.024 61.4024 14.712C60.8704 14.4 60.4684 13.972 60.1964 13.428C59.9244 12.88 59.7884 12.252 59.7884 11.544V6.6H61.7804V11.616C61.7804 12.188 61.9224 12.614 62.2064 12.894C62.4904 13.17 62.8844 13.308 63.3884 13.308C63.8884 13.308 64.2784 13.17 64.5584 12.894C64.8424 12.614 64.9844 12.188 64.9844 11.616V6.6H66.9824V11.544C66.9824 12.248 66.8464 12.874 66.5744 13.422C66.3024 13.966 65.8984 14.396 65.3624 14.712C64.8304 15.024 64.1724 15.18 63.3884 15.18ZM68.5584 15V6.6H70.5264L73.9824 11.748V6.6H75.9144V15H73.9464L70.4844 9.78V15H68.5584ZM77.5383 15V6.6H80.4183C81.2903 6.6 82.0543 6.778 82.7103 7.134C83.3703 7.49 83.8843 7.984 84.2523 8.616C84.6203 9.244 84.8043 9.972 84.8043 10.8C84.8043 11.424 84.6983 11.994 84.4863 12.51C84.2783 13.022 83.9803 13.464 83.5923 13.836C83.2043 14.208 82.7423 14.496 82.2063 14.7C81.6703 14.9 81.0743 15 80.4183 15H77.5383ZM79.5303 13.146H80.3163C80.6763 13.146 81.0023 13.096 81.2943 12.996C81.5863 12.896 81.8383 12.746 82.0503 12.546C82.2663 12.346 82.4303 12.1 82.5423 11.808C82.6583 11.516 82.7163 11.18 82.7163 10.8C82.7163 10.292 82.6163 9.864 82.4163 9.516C82.2163 9.164 81.9343 8.9 81.5703 8.724C81.2103 8.544 80.7923 8.454 80.3163 8.454H79.5303V13.146ZM89.9139 15.18C89.0459 15.18 88.2799 15.002 87.6159 14.646C86.9519 14.29 86.4339 13.786 86.0619 13.134C85.6899 12.482 85.5039 11.712 85.5039 10.824C85.5039 10.176 85.6119 9.584 85.8279 9.048C86.0479 8.508 86.3559 8.042 86.7519 7.65C87.1519 7.258 87.6219 6.956 88.1619 6.744C88.7059 6.528 89.2999 6.42 89.9439 6.42C90.6439 6.42 91.2319 6.508 91.7079 6.684C92.1839 6.86 92.6139 7.11 92.9979 7.434L92.0019 9.072C91.7699 8.832 91.4899 8.654 91.1619 8.538C90.8339 8.418 90.4719 8.358 90.0759 8.358C89.6839 8.358 89.3339 8.416 89.0259 8.532C88.7219 8.644 88.4619 8.806 88.2459 9.018C88.0339 9.23 87.8719 9.486 87.7599 9.786C87.6479 10.086 87.5919 10.422 87.5919 10.794C87.5919 11.306 87.6919 11.744 87.8919 12.108C88.0959 12.472 88.3859 12.752 88.7619 12.948C89.1379 13.14 89.5879 13.236 90.1119 13.236C90.4879 13.236 90.8599 13.18 91.2279 13.068C91.5999 12.952 91.9519 12.766 92.2839 12.51L93.1959 14.184C92.8079 14.484 92.3439 14.726 91.8039 14.91C91.2639 15.09 90.6339 15.18 89.9139 15.18ZM94.0448 15V6.6H96.0368V9.714H99.3488V6.6H101.341V15H99.3488V11.532H96.0368V15H94.0448ZM102.966 15V6.6H108.87V8.328H104.958V9.888H108.24V11.484H104.958V13.254H108.918V15H102.966ZM114.111 15.18C113.243 15.18 112.477 15.002 111.813 14.646C111.149 14.29 110.631 13.786 110.259 13.134C109.887 12.482 109.701 11.712 109.701 10.824C109.701 10.176 109.809 9.584 110.025 9.048C110.245 8.508 110.553 8.042 110.949 7.65C111.349 7.258 111.819 6.956 112.359 6.744C112.903 6.528 113.497 6.42 114.141 6.42C114.841 6.42 115.429 6.508 115.905 6.684C116.381 6.86 116.811 7.11 117.195 7.434L116.199 9.072C115.967 8.832 115.687 8.654 115.359 8.538C115.031 8.418 114.669 8.358 114.273 8.358C113.881 8.358 113.531 8.416 113.223 8.532C112.919 8.644 112.659 8.806 112.443 9.018C112.231 9.23 112.069 9.486 111.957 9.786C111.845 10.086 111.789 10.422 111.789 10.794C111.789 11.306 111.889 11.744 112.089 12.108C112.293 12.472 112.583 12.752 112.959 12.948C113.335 13.14 113.785 13.236 114.309 13.236C114.685 13.236 115.057 13.18 115.425 13.068C115.797 12.952 116.149 12.766 116.481 12.51L117.393 14.184C117.005 14.484 116.541 14.726 116.001 14.91C115.461 15.09 114.831 15.18 114.111 15.18ZM118.242 15V6.6H120.234V10.182L123.084 6.6H125.568L122.46 10.458L125.97 15H123.408L121.146 11.964L120.234 13.002V15H118.242Z" fill="white" fill-opacity="0.95"/>
<path d="M46.878 30.18C46.01 30.18 45.244 30.002 44.58 29.646C43.916 29.29 43.398 28.786 43.026 28.134C42.654 27.482 42.468 26.712 42.468 25.824C42.468 25.176 42.576 24.584 42.792 24.048C43.012 23.508 43.32 23.042 43.716 22.65C44.116 22.258 44.586 21.956 45.126 21.744C45.67 21.528 46.264 21.42 46.908 21.42C47.608 21.42 48.196 21.508 48.672 21.684C49.148 21.86 49.578 22.11 49.962 22.434L48.966 24.072C48.734 23.832 48.454 23.654 48.126 23.538C47.798 23.418 47.436 23.358 47.04 23.358C46.648 23.358 46.298 23.416 45.99 23.532C45.686 23.644 45.426 23.806 45.21 24.018C44.998 24.23 44.836 24.486 44.724 24.786C44.612 25.086 44.556 25.422 44.556 25.794C44.556 26.306 44.656 26.744 44.856 27.108C45.06 27.472 45.35 27.752 45.726 27.948C46.102 28.14 46.552 28.236 47.076 28.236C47.452 28.236 47.824 28.18 48.192 28.068C48.564 27.952 48.916 27.766 49.248 27.51L50.16 29.184C49.772 29.484 49.308 29.726 48.768 29.91C48.228 30.09 47.598 30.18 46.878 30.18ZM50.0609 30L53.1989 21.6H55.5089L58.6769 30H56.4329L55.8389 28.296H52.8269L52.2449 30H50.0609ZM53.2769 26.634H55.3769L54.3209 23.73L53.2769 26.634ZM59.3442 30V21.6H62.7102C63.3382 21.6 63.8942 21.71 64.3782 21.93C64.8622 22.146 65.2422 22.462 65.5182 22.878C65.7982 23.294 65.9382 23.794 65.9382 24.378C65.9382 24.97 65.8102 25.472 65.5542 25.884C65.2982 26.296 64.9262 26.61 64.4382 26.826C63.9502 27.042 63.3582 27.15 62.6622 27.15H61.3362V30H59.3442ZM61.3362 25.482H62.6142C63.0342 25.482 63.3602 25.4 63.5922 25.236C63.8282 25.068 63.9462 24.792 63.9462 24.408C63.9462 24.024 63.8242 23.746 63.5802 23.574C63.3402 23.398 63.0222 23.31 62.6262 23.31H61.3362V25.482ZM66.8709 30V21.6H68.8629V30H66.8709ZM71.9596 30V23.418H69.7216V21.6H76.2016V23.418H73.9636V30H71.9596ZM75.574 30L78.712 21.6H81.022L84.19 30H81.946L81.352 28.296H78.34L77.758 30H75.574ZM78.79 26.634H80.89L79.834 23.73L78.79 26.634ZM84.8573 30V21.6H86.8493V28.182H90.2213V30H84.8573Z" fill="white" fill-opacity="0.95"/>
<defs>
<linearGradient id="paint0_linear_1705_10" x1="22" y1="0" x2="22" y2="28" gradientUnits="userSpaceOnUse">
<stop stop-color="#EF2A5F"/>
<stop offset="0.435" stop-color="#F58357"/>
<stop offset="0.95" stop-color="#FFBB37"/>
</linearGradient>
<linearGradient id="paint1_linear_1705_10" x1="31" y1="14" x2="31" y2="34" gradientUnits="userSpaceOnUse">
<stop stop-color="#EF2A5F"/>
<stop offset="0.435" stop-color="#F58357"/>
<stop offset="0.95" stop-color="#FFBB37"/>
</linearGradient>
<linearGradient id="paint2_linear_1705_10" x1="13" y1="7" x2="13" y2="38" gradientUnits="userSpaceOnUse">
<stop stop-color="#EF2A5F"/>
<stop offset="0.435" stop-color="#F58357"/>
<stop offset="0.95" stop-color="#FFBB37"/>
</linearGradient>
<linearGradient id="paint3_linear_1705_10" x1="3.75" y1="15" x2="3.75" y2="32" gradientUnits="userSpaceOnUse">
<stop stop-color="#EF2A5F"/>
<stop offset="0.435" stop-color="#F58357"/>
<stop offset="0.95" stop-color="#FFBB37"/>
</linearGradient>
</defs>
</svg>
