<svg width="136" height="33" viewBox="0 0 136 33" fill="none" xmlns="http://www.w3.org/2000/svg">
<rect x="14.9141" width="6.62857" height="23.5789" rx="3.31429" fill="url(#paint0_linear_1705_10)"/>
<rect x="22.3711" y="11.7891" width="6.62857" height="16.8421" rx="3.31429" fill="url(#paint1_linear_1705_10)"/>
<rect x="7.45703" y="5.89453" width="6.62857" height="26.1053" rx="3.31429" fill="url(#paint2_linear_1705_10)"/>
<rect y="12.6328" width="6.21429" height="14.3158" rx="3.10714" fill="url(#paint3_linear_1705_10)"/>
<path d="M39.5165 13.255C38.6382 13.255 37.7853 13.1275 36.958 12.8725C36.1307 12.6175 35.4308 12.2463 34.8585 11.759L36.057 9.872C36.3177 10.1327 36.6378 10.3565 37.0175 10.5435C37.4028 10.7305 37.8108 10.875 38.2415 10.977C38.6778 11.0733 39.1057 11.1215 39.525 11.1215C40.171 11.1215 40.6952 11.0082 41.0975 10.7815C41.4998 10.5548 41.701 10.2233 41.701 9.787C41.701 9.43567 41.5593 9.14383 41.276 8.9115C40.9927 8.6735 40.4657 8.44683 39.695 8.2315L38.607 7.9255C37.4113 7.59117 36.55 7.13783 36.023 6.5655C35.496 5.99317 35.2325 5.299 35.2325 4.483C35.2325 3.95033 35.343 3.463 35.564 3.021C35.785 2.579 36.0938 2.1965 36.4905 1.8735C36.8928 1.5505 37.366 1.30117 37.91 1.1255C38.4597 0.944166 39.0547 0.8535 39.695 0.8535C40.562 0.8535 41.3667 0.981 42.109 1.236C42.857 1.48533 43.4633 1.82817 43.928 2.2645L42.687 4.092C42.4603 3.86533 42.1855 3.66983 41.8625 3.5055C41.5452 3.34117 41.1995 3.21367 40.8255 3.123C40.4515 3.02667 40.0747 2.9785 39.695 2.9785C39.287 2.9785 38.9272 3.03517 38.6155 3.1485C38.3095 3.25617 38.0715 3.41483 37.9015 3.6245C37.7315 3.8285 37.6465 4.075 37.6465 4.364C37.6465 4.585 37.706 4.77483 37.825 4.9335C37.9497 5.0865 38.1565 5.231 38.4455 5.367C38.7402 5.503 39.1425 5.64467 39.6525 5.792L40.7745 6.1235C41.9532 6.46917 42.8088 6.90833 43.3415 7.441C43.8742 7.97367 44.1405 8.665 44.1405 9.515C44.1405 10.2517 43.9535 10.9033 43.5795 11.47C43.2112 12.031 42.6785 12.4702 41.9815 12.7875C41.2902 13.0992 40.4685 13.255 39.5165 13.255ZM49.5255 13.255C48.6018 13.255 47.783 13.0482 47.069 12.6345C46.355 12.2208 45.794 11.6712 45.386 10.9855C44.9837 10.2942 44.7825 9.53483 44.7825 8.7075C44.7825 8.10117 44.8987 7.526 45.131 6.982C45.3633 6.43233 45.692 5.94783 46.117 5.5285C46.542 5.1035 47.0435 4.76917 47.6215 4.5255C48.1995 4.28183 48.8342 4.16 49.5255 4.16C50.4492 4.16 51.2652 4.36683 51.9735 4.7805C52.6875 5.19417 53.2457 5.74667 53.648 6.438C54.056 7.12367 54.26 7.88017 54.26 8.7075C54.26 9.30817 54.1438 9.88333 53.9115 10.433C53.6792 10.9827 53.3505 11.47 52.9255 11.895C52.5062 12.3143 52.0075 12.6458 51.4295 12.8895C50.8515 13.1332 50.2168 13.255 49.5255 13.255ZM49.5255 11.1045C49.9618 11.1045 50.3528 11.0082 50.6985 10.8155C51.0442 10.6172 51.3162 10.3395 51.5145 9.9825C51.7128 9.61983 51.812 9.19483 51.812 8.7075C51.812 8.2145 51.7128 7.7895 51.5145 7.4325C51.3218 7.0755 51.0527 6.80067 50.707 6.608C50.3613 6.40967 49.9675 6.3105 49.5255 6.3105C49.0835 6.3105 48.6868 6.40967 48.3355 6.608C47.9898 6.80067 47.7178 7.0755 47.5195 7.4325C47.3268 7.7895 47.2305 8.2145 47.2305 8.7075C47.2305 9.2005 47.3297 9.6255 47.528 9.9825C47.7263 10.3395 47.9983 10.6172 48.344 10.8155C48.6897 11.0082 49.0835 11.1045 49.5255 11.1045ZM58.8026 13.255C58.0263 13.255 57.3831 13.102 56.8731 12.796C56.3688 12.49 55.9919 12.0707 55.7426 11.538C55.4933 11.0053 55.3686 10.4018 55.3686 9.7275V4.415H57.8506V9.328C57.8506 9.838 57.9894 10.2432 58.2671 10.5435C58.5504 10.8438 58.9556 10.994 59.4826 10.994C59.8226 10.994 60.1229 10.9203 60.3836 10.773C60.6443 10.62 60.8454 10.4075 60.9871 10.1355C61.1344 9.8635 61.2081 9.549 61.2081 9.192V4.415H63.6901V13H61.5311V12.0565C61.2364 12.3965 60.8709 12.6827 60.4346 12.915C60.0039 13.1417 59.4599 13.255 58.8026 13.255ZM65.6018 13V4.415H68.0838V5.384C68.4125 4.95333 68.8006 4.64167 69.2483 4.449C69.7016 4.25633 70.1748 4.16 70.6678 4.16C71.4668 4.16 72.1241 4.31867 72.6398 4.636C73.1611 4.94767 73.5465 5.35283 73.7958 5.8515C74.0508 6.35017 74.1783 6.87433 74.1783 7.424V13H71.6963V8.1975C71.6963 7.6535 71.5433 7.22 71.2373 6.897C70.937 6.574 70.5006 6.4125 69.9283 6.4125C69.5656 6.4125 69.2455 6.49467 68.9678 6.659C68.6901 6.81767 68.472 7.0415 68.3133 7.3305C68.1603 7.6195 68.0838 7.95383 68.0838 8.3335V13H65.6018ZM79.5775 13.255C78.7502 13.255 78.0135 13.0652 77.3675 12.6855C76.7272 12.3002 76.22 11.7647 75.846 11.079C75.4777 10.3933 75.2935 9.60283 75.2935 8.7075C75.2935 8.06717 75.3984 7.47217 75.608 6.9225C75.8234 6.37283 76.1237 5.89117 76.509 5.4775C76.8944 5.06383 77.3505 4.74083 77.8775 4.5085C78.4045 4.27617 78.9854 4.16 79.62 4.16C80.317 4.16 80.9347 4.29883 81.473 4.5765C82.017 4.8485 82.4845 5.248 82.8755 5.775L82.3145 6.3445V0.76H84.7965V13H82.6375V10.824L82.9775 11.385C82.7112 11.9347 82.289 12.3852 81.711 12.7365C81.133 13.0822 80.4219 13.255 79.5775 13.255ZM80.0365 11.1045C80.4729 11.1045 80.8639 11.0082 81.2095 10.8155C81.5552 10.6172 81.8272 10.3395 82.0255 9.9825C82.2239 9.6255 82.323 9.2005 82.323 8.7075C82.323 8.2145 82.2239 7.7895 82.0255 7.4325C81.8329 7.0755 81.5637 6.80067 81.218 6.608C80.8724 6.40967 80.4785 6.3105 80.0365 6.3105C79.5945 6.3105 79.2007 6.40967 78.855 6.608C78.5094 6.80067 78.2374 7.0755 78.039 7.4325C77.8407 7.7895 77.7415 8.2145 77.7415 8.7075C77.7415 9.2005 77.8407 9.6255 78.039 9.9825C78.2374 10.3395 78.5094 10.6172 78.855 10.8155C79.2007 11.0082 79.5945 11.1045 80.0365 11.1045ZM92.4156 13.255C91.1859 13.255 90.1036 13.0028 89.1686 12.4985C88.2336 11.9885 87.5054 11.2717 86.9841 10.348C86.4628 9.41867 86.2021 8.32783 86.2021 7.0755C86.2021 6.16317 86.3551 5.32733 86.6611 4.568C86.9671 3.80867 87.4006 3.15133 87.9616 2.596C88.5226 2.035 89.1828 1.60433 89.9421 1.304C90.7071 0.997999 91.5429 0.844999 92.4496 0.844999C93.4129 0.844999 94.2289 0.966833 94.8976 1.2105C95.5663 1.45417 96.1669 1.797 96.6996 2.239L95.4246 4.3045C95.0789 3.9645 94.6681 3.7095 94.1921 3.5395C93.7218 3.3695 93.1976 3.2845 92.6196 3.2845C92.0303 3.2845 91.5004 3.37233 91.0301 3.548C90.5654 3.72367 90.1688 3.97583 89.8401 4.3045C89.5171 4.6275 89.2678 5.02133 89.0921 5.486C88.9221 5.945 88.8371 6.4635 88.8371 7.0415C88.8371 7.83483 88.9901 8.512 89.2961 9.073C89.6078 9.62833 90.0498 10.0562 90.6221 10.3565C91.2001 10.6568 91.8886 10.807 92.6876 10.807C93.2429 10.807 93.7869 10.722 94.3196 10.552C94.8579 10.382 95.3651 10.11 95.8411 9.736L96.9971 11.8525C96.4361 12.2832 95.7788 12.626 95.0251 12.881C94.2714 13.1303 93.4016 13.255 92.4156 13.255ZM98.0552 13V0.76H100.537V6.285L100.019 5.6815C100.393 5.19983 100.84 4.82583 101.362 4.5595C101.883 4.29317 102.447 4.16 103.053 4.16C103.852 4.16 104.515 4.31867 105.042 4.636C105.575 4.95333 105.972 5.367 106.232 5.877C106.499 6.387 106.632 6.931 106.632 7.509V13H104.15V8.2145C104.15 7.68183 103.991 7.25117 103.674 6.9225C103.356 6.58817 102.92 6.41817 102.365 6.4125C101.991 6.4125 101.665 6.49183 101.387 6.6505C101.115 6.8035 100.906 7.02733 100.758 7.322C100.611 7.611 100.537 7.951 100.537 8.342V13H98.0552ZM112.464 13.255C111.529 13.255 110.708 13.0652 109.999 12.6855C109.291 12.3058 108.739 11.776 108.342 11.096C107.945 10.416 107.747 9.61983 107.747 8.7075C107.747 8.0445 107.86 7.43533 108.087 6.88C108.319 6.32467 108.642 5.84583 109.056 5.4435C109.475 5.0355 109.965 4.721 110.526 4.5C111.093 4.27333 111.714 4.16 112.388 4.16C113.13 4.16 113.788 4.29033 114.36 4.551C114.938 4.81167 115.417 5.17717 115.796 5.6475C116.176 6.11217 116.44 6.659 116.587 7.288C116.74 7.917 116.754 8.59983 116.629 9.3365H110.05C110.05 9.73317 110.152 10.0788 110.356 10.3735C110.566 10.6682 110.858 10.9005 111.232 11.0705C111.612 11.2348 112.054 11.317 112.558 11.317C113.057 11.317 113.533 11.249 113.986 11.113C114.439 10.977 114.867 10.7702 115.269 10.4925L116.094 12.1925C115.822 12.4022 115.482 12.5892 115.074 12.7535C114.666 12.9122 114.232 13.034 113.773 13.119C113.32 13.2097 112.884 13.255 112.464 13.255ZM110.195 7.628H114.249C114.232 7.12367 114.054 6.72417 113.714 6.4295C113.38 6.13483 112.918 5.9875 112.328 5.9875C111.739 5.9875 111.249 6.13483 110.858 6.4295C110.473 6.72417 110.252 7.12367 110.195 7.628ZM122.032 13.255C121.125 13.255 120.315 13.0567 119.601 12.66C118.887 12.2633 118.323 11.7222 117.909 11.0365C117.501 10.3508 117.297 9.5745 117.297 8.7075C117.297 8.05583 117.419 7.45517 117.663 6.9055C117.907 6.35017 118.247 5.8685 118.683 5.4605C119.125 5.04683 119.641 4.72667 120.23 4.5C120.819 4.27333 121.457 4.16 122.142 4.16C122.771 4.16 123.352 4.245 123.885 4.415C124.423 4.585 124.911 4.84 125.347 5.18L124.225 7.033C123.953 6.78933 123.65 6.608 123.315 6.489C122.987 6.37 122.638 6.3105 122.27 6.3105C121.754 6.3105 121.309 6.404 120.935 6.591C120.567 6.778 120.281 7.05 120.077 7.407C119.879 7.764 119.779 8.19467 119.779 8.699C119.779 9.45267 120 10.042 120.442 10.467C120.89 10.892 121.499 11.1045 122.27 11.1045C122.684 11.1045 123.072 11.028 123.434 10.875C123.803 10.722 124.129 10.5095 124.412 10.2375L125.457 12.116C124.987 12.4673 124.452 12.745 123.851 12.949C123.25 13.153 122.644 13.255 122.032 13.255ZM126.491 13V0.76H128.973V7.475L131.812 4.415H134.702L131.693 7.8235L135.034 13H132.084L129.891 9.447L128.973 10.399V13H126.491Z" fill="white" fill-opacity="0.95"/>
<path d="M40.9275 29.255C39.6978 29.255 38.6155 29.0028 37.6805 28.4985C36.7455 27.9885 36.0173 27.2717 35.496 26.348C34.9747 25.4187 34.714 24.3278 34.714 23.0755C34.714 22.1632 34.867 21.3273 35.173 20.568C35.479 19.8087 35.9125 19.1513 36.4735 18.596C37.0345 18.035 37.6947 17.6043 38.454 17.304C39.219 16.998 40.0548 16.845 40.9615 16.845C41.9248 16.845 42.7408 16.9668 43.4095 17.2105C44.0782 17.4542 44.6788 17.797 45.2115 18.239L43.9365 20.3045C43.5908 19.9645 43.18 19.7095 42.704 19.5395C42.2337 19.3695 41.7095 19.2845 41.1315 19.2845C40.5422 19.2845 40.0123 19.3723 39.542 19.548C39.0773 19.7237 38.6807 19.9758 38.352 20.3045C38.029 20.6275 37.7797 21.0213 37.604 21.486C37.434 21.945 37.349 22.4635 37.349 23.0415C37.349 23.8348 37.502 24.512 37.808 25.073C38.1197 25.6283 38.5617 26.0562 39.134 26.3565C39.712 26.6568 40.4005 26.807 41.1995 26.807C41.7548 26.807 42.2988 26.722 42.8315 26.552C43.3698 26.382 43.877 26.11 44.353 25.736L45.509 27.8525C44.948 28.2832 44.2907 28.626 43.537 28.881C42.7833 29.1303 41.9135 29.255 40.9275 29.255ZM48.9641 29.255C48.3861 29.255 47.8705 29.1445 47.4171 28.9235C46.9638 28.7025 46.6068 28.388 46.3461 27.98C46.0855 27.5663 45.9551 27.0733 45.9551 26.501C45.9551 26.0137 46.077 25.5802 46.3206 25.2005C46.5643 24.8208 46.9326 24.5092 47.4256 24.2655C47.9243 24.0162 48.5533 23.849 49.3126 23.764C50.0776 23.6733 50.9786 23.679 52.0156 23.781L52.0411 25.362C51.4235 25.26 50.8766 25.2118 50.4006 25.2175C49.9303 25.2232 49.5336 25.2713 49.2106 25.362C48.8933 25.4527 48.6525 25.5858 48.4881 25.7615C48.3238 25.9315 48.2416 26.1383 48.2416 26.382C48.2416 26.7163 48.3663 26.9742 48.6156 27.1555C48.865 27.3312 49.2021 27.419 49.6271 27.419C49.9955 27.419 50.327 27.3538 50.6216 27.2235C50.9163 27.0932 51.1515 26.9033 51.3271 26.654C51.5028 26.4047 51.5906 26.1015 51.5906 25.7445V23.6875C51.5906 23.3532 51.5198 23.0613 51.3781 22.812C51.2421 22.557 51.0268 22.3615 50.7321 22.2255C50.4375 22.0838 50.0521 22.013 49.5761 22.013C49.1341 22.013 48.6921 22.081 48.2501 22.217C47.8138 22.3473 47.4143 22.5485 47.0516 22.8205L46.3971 21.0865C46.9468 20.7352 47.5305 20.4802 48.1481 20.3215C48.7658 20.1572 49.3693 20.075 49.9586 20.075C50.7633 20.075 51.466 20.2025 52.0666 20.4575C52.6673 20.7125 53.132 21.1063 53.4606 21.639C53.795 22.166 53.9621 22.8375 53.9621 23.6535V29H51.8031V28.0565C51.5198 28.4418 51.1316 28.7393 50.6386 28.949C50.1456 29.153 49.5875 29.255 48.9641 29.255ZM55.7524 32.57V20.415H57.9114V21.469C58.2401 21.078 58.6566 20.7635 59.1609 20.5255C59.6709 20.2818 60.2744 20.16 60.9714 20.16C61.7988 20.16 62.5354 20.3527 63.1814 20.738C63.8274 21.1177 64.3346 21.6503 64.7029 22.336C65.0713 23.0217 65.2554 23.8122 65.2554 24.7075C65.2554 25.3478 65.1478 25.9428 64.9324 26.4925C64.7228 27.0422 64.4253 27.5238 64.0399 27.9375C63.6546 28.3512 63.1984 28.6742 62.6714 28.9065C62.1444 29.1388 61.5636 29.255 60.9289 29.255C60.3679 29.255 59.8608 29.1615 59.4074 28.9745C58.9598 28.7875 58.5659 28.524 58.2259 28.184V32.57H55.7524ZM60.5124 27.1045C60.9544 27.1045 61.3483 27.0082 61.6939 26.8155C62.0453 26.6172 62.3173 26.3395 62.5099 25.9825C62.7083 25.6255 62.8074 25.2005 62.8074 24.7075C62.8074 24.2145 62.7083 23.7895 62.5099 23.4325C62.3116 23.0755 62.0396 22.8007 61.6939 22.608C61.3483 22.4097 60.9544 22.3105 60.5124 22.3105C60.0761 22.3105 59.6851 22.4097 59.3394 22.608C58.9938 22.8007 58.7218 23.0755 58.5234 23.4325C58.3251 23.7895 58.2259 24.2145 58.2259 24.7075C58.2259 25.2005 58.3223 25.6255 58.5149 25.9825C58.7133 26.3395 58.9853 26.6172 59.3309 26.8155C59.6766 27.0082 60.0704 27.1045 60.5124 27.1045ZM66.4485 29V20.415H68.9305V29H66.4485ZM67.6895 19.055C67.2758 19.055 66.9188 18.9275 66.6185 18.6725C66.3182 18.4118 66.168 18.0662 66.168 17.6355C66.168 17.1992 66.3182 16.8535 66.6185 16.5985C66.9188 16.3378 67.2758 16.2075 67.6895 16.2075C68.1032 16.2075 68.4602 16.3378 68.7605 16.5985C69.0608 16.8535 69.211 17.1992 69.211 17.6355C69.211 18.0662 69.0608 18.4118 68.7605 18.6725C68.4602 18.9275 68.1032 19.055 67.6895 19.055ZM74.5589 29.255C73.6409 29.255 72.9156 28.9972 72.3829 28.4815C71.8559 27.9602 71.5924 27.1753 71.5924 26.127V17.9415H74.0744V20.415H76.2079V22.404H74.0744V25.6765C74.0744 26.1808 74.1793 26.535 74.3889 26.739C74.5986 26.943 74.8791 27.045 75.2304 27.045C75.4118 27.045 75.5874 27.0252 75.7574 26.9855C75.9331 26.9402 76.0946 26.8778 76.2419 26.7985L76.5904 28.7535C76.3354 28.8952 76.0294 29.0142 75.6724 29.1105C75.3211 29.2068 74.9499 29.255 74.5589 29.255ZM69.8499 22.404V20.415H71.8389V22.404H69.8499ZM80.2435 29.255C79.6655 29.255 79.1498 29.1445 78.6965 28.9235C78.2431 28.7025 77.8861 28.388 77.6255 27.98C77.3648 27.5663 77.2345 27.0733 77.2345 26.501C77.2345 26.0137 77.3563 25.5802 77.6 25.2005C77.8436 24.8208 78.212 24.5092 78.705 24.2655C79.2036 24.0162 79.8326 23.849 80.592 23.764C81.357 23.6733 82.258 23.679 83.295 23.781L83.3205 25.362C82.7028 25.26 82.156 25.2118 81.68 25.2175C81.2096 25.2232 80.813 25.2713 80.49 25.362C80.1726 25.4527 79.9318 25.5858 79.7675 25.7615C79.6031 25.9315 79.521 26.1383 79.521 26.382C79.521 26.7163 79.6456 26.9742 79.895 27.1555C80.1443 27.3312 80.4815 27.419 80.9065 27.419C81.2748 27.419 81.6063 27.3538 81.901 27.2235C82.1956 27.0932 82.4308 26.9033 82.6065 26.654C82.7821 26.4047 82.87 26.1015 82.87 25.7445V23.6875C82.87 23.3532 82.7991 23.0613 82.6575 22.812C82.5215 22.557 82.3061 22.3615 82.0115 22.2255C81.7168 22.0838 81.3315 22.013 80.8555 22.013C80.4135 22.013 79.9715 22.081 79.5295 22.217C79.0931 22.3473 78.6936 22.5485 78.331 22.8205L77.6765 21.0865C78.2261 20.7352 78.8098 20.4802 79.4275 20.3215C80.0451 20.1572 80.6486 20.075 81.238 20.075C82.0426 20.075 82.7453 20.2025 83.346 20.4575C83.9466 20.7125 84.4113 21.1063 84.74 21.639C85.0743 22.166 85.2415 22.8375 85.2415 23.6535V29H83.0825V28.0565C82.7991 28.4418 82.411 28.7393 81.918 28.949C81.425 29.153 80.8668 29.255 80.2435 29.255ZM87.0318 29V16.76H89.5138V29H87.0318Z" fill="white" fill-opacity="0.95"/>
<defs>
<linearGradient id="paint0_linear_1705_10" x1="18.2283" y1="0" x2="18.2283" y2="23.5789" gradientUnits="userSpaceOnUse">
<stop stop-color="#EF2A5F"/>
<stop offset="0.435" stop-color="#F58357"/>
<stop offset="0.95" stop-color="#FFBB37"/>
</linearGradient>
<linearGradient id="paint1_linear_1705_10" x1="25.6854" y1="11.7891" x2="25.6854" y2="28.6312" gradientUnits="userSpaceOnUse">
<stop stop-color="#EF2A5F"/>
<stop offset="0.435" stop-color="#F58357"/>
<stop offset="0.95" stop-color="#FFBB37"/>
</linearGradient>
<linearGradient id="paint2_linear_1705_10" x1="10.7713" y1="5.89453" x2="10.7713" y2="31.9998" gradientUnits="userSpaceOnUse">
<stop stop-color="#EF2A5F"/>
<stop offset="0.435" stop-color="#F58357"/>
<stop offset="0.95" stop-color="#FFBB37"/>
</linearGradient>
<linearGradient id="paint3_linear_1705_10" x1="3.10714" y1="12.6328" x2="3.10714" y2="26.9486" gradientUnits="userSpaceOnUse">
<stop stop-color="#EF2A5F"/>
<stop offset="0.435" stop-color="#F58357"/>
<stop offset="0.95" stop-color="#FFBB37"/>
</linearGradient>
</defs>
</svg>
