<svg width="123" height="38" viewBox="0 0 123 38" fill="none" xmlns="http://www.w3.org/2000/svg">
<rect x="18" width="8" height="28" rx="4" fill="url(#paint0_linear_1705_10)"/>
<rect x="27" y="14" width="8" height="20" rx="4" fill="url(#paint1_linear_1705_10)"/>
<rect x="9" y="7" width="8" height="31" rx="4" fill="url(#paint2_linear_1705_10)"/>
<rect y="15" width="7.5" height="17" rx="3.75" fill="url(#paint3_linear_1705_10)"/>
<path d="M41.924 17.18C41.288 17.18 40.67 17.086 40.07 16.898C39.47 16.71 38.962 16.438 38.546 16.082L39.482 14.594C39.658 14.782 39.882 14.944 40.154 15.08C40.426 15.216 40.716 15.322 41.024 15.398C41.336 15.47 41.638 15.506 41.93 15.506C42.342 15.506 42.676 15.438 42.932 15.302C43.192 15.162 43.322 14.96 43.322 14.696C43.322 14.48 43.228 14.298 43.04 14.15C42.856 14.002 42.51 13.86 42.002 13.724L41.282 13.52C40.418 13.28 39.796 12.952 39.416 12.536C39.036 12.12 38.846 11.62 38.846 11.036C38.846 10.66 38.926 10.314 39.086 9.998C39.246 9.678 39.47 9.402 39.758 9.17C40.046 8.934 40.384 8.752 40.772 8.624C41.164 8.492 41.59 8.426 42.05 8.426C42.686 8.426 43.276 8.52 43.82 8.708C44.368 8.892 44.808 9.144 45.14 9.464L44.168 10.904C44.016 10.744 43.828 10.604 43.604 10.484C43.38 10.364 43.136 10.27 42.872 10.202C42.608 10.134 42.342 10.1 42.074 10.1C41.81 10.1 41.58 10.134 41.384 10.202C41.188 10.27 41.034 10.368 40.922 10.496C40.814 10.62 40.76 10.768 40.76 10.94C40.76 11.08 40.8 11.198 40.88 11.294C40.964 11.386 41.102 11.474 41.294 11.558C41.49 11.642 41.754 11.734 42.086 11.834L42.818 12.05C43.678 12.302 44.3 12.618 44.684 12.998C45.068 13.378 45.26 13.872 45.26 14.48C45.26 15.012 45.124 15.482 44.852 15.89C44.58 16.294 44.194 16.61 43.694 16.838C43.198 17.066 42.608 17.18 41.924 17.18ZM50.2541 17.18C49.6101 17.18 49.0141 17.07 48.4661 16.85C47.9221 16.626 47.4481 16.316 47.0441 15.92C46.6401 15.524 46.3261 15.06 46.1021 14.528C45.8821 13.996 45.7721 13.42 45.7721 12.8C45.7721 12.176 45.8821 11.598 46.1021 11.066C46.3261 10.534 46.6401 10.07 47.0441 9.674C47.4481 9.278 47.9221 8.97 48.4661 8.75C49.0141 8.53 49.6101 8.42 50.2541 8.42C50.9021 8.42 51.4981 8.532 52.0421 8.756C52.5861 8.98 53.0601 9.292 53.4641 9.692C53.8681 10.092 54.1801 10.558 54.4001 11.09C54.6241 11.618 54.7361 12.188 54.7361 12.8C54.7361 13.42 54.6241 13.996 54.4001 14.528C54.1801 15.06 53.8681 15.524 53.4641 15.92C53.0601 16.316 52.5861 16.626 52.0421 16.85C51.4981 17.07 50.9021 17.18 50.2541 17.18ZM50.2541 15.308C50.6021 15.308 50.9201 15.25 51.2081 15.134C51.5001 15.018 51.7541 14.85 51.9701 14.63C52.1861 14.41 52.3521 14.146 52.4681 13.838C52.5881 13.526 52.6481 13.18 52.6481 12.8C52.6481 12.288 52.5441 11.844 52.3361 11.468C52.1321 11.092 51.8481 10.802 51.4841 10.598C51.1241 10.39 50.7141 10.286 50.2541 10.286C49.9101 10.286 49.5921 10.346 49.3001 10.466C49.0081 10.582 48.7541 10.75 48.5381 10.97C48.3261 11.19 48.1601 11.454 48.0401 11.762C47.9201 12.07 47.8601 12.416 47.8601 12.8C47.8601 13.308 47.9641 13.75 48.1721 14.126C48.3801 14.502 48.6641 14.794 49.0241 15.002C49.3881 15.206 49.7981 15.308 50.2541 15.308ZM59.3884 17.18C58.6004 17.18 57.9384 17.024 57.4024 16.712C56.8704 16.4 56.4684 15.972 56.1964 15.428C55.9244 14.88 55.7884 14.252 55.7884 13.544V8.6H57.7804V13.616C57.7804 14.188 57.9224 14.614 58.2064 14.894C58.4904 15.17 58.8844 15.308 59.3884 15.308C59.8884 15.308 60.2784 15.17 60.5584 14.894C60.8424 14.614 60.9844 14.188 60.9844 13.616V8.6H62.9824V13.544C62.9824 14.248 62.8464 14.874 62.5744 15.422C62.3024 15.966 61.8984 16.396 61.3624 16.712C60.8304 17.024 60.1724 17.18 59.3884 17.18ZM64.5584 17V8.6H66.5264L69.9824 13.748V8.6H71.9144V17H69.9464L66.4844 11.78V17H64.5584ZM73.5383 17V8.6H76.4183C77.2903 8.6 78.0543 8.778 78.7103 9.134C79.3703 9.49 79.8843 9.984 80.2523 10.616C80.6203 11.244 80.8043 11.972 80.8043 12.8C80.8043 13.424 80.6983 13.994 80.4863 14.51C80.2783 15.022 79.9803 15.464 79.5923 15.836C79.2043 16.208 78.7423 16.496 78.2063 16.7C77.6703 16.9 77.0743 17 76.4183 17H73.5383ZM75.5303 15.146H76.3163C76.6763 15.146 77.0023 15.096 77.2943 14.996C77.5863 14.896 77.8383 14.746 78.0503 14.546C78.2663 14.346 78.4303 14.1 78.5423 13.808C78.6583 13.516 78.7163 13.18 78.7163 12.8C78.7163 12.292 78.6163 11.864 78.4163 11.516C78.2163 11.164 77.9343 10.9 77.5703 10.724C77.2103 10.544 76.7923 10.454 76.3163 10.454H75.5303V15.146ZM85.9139 17.18C85.0459 17.18 84.2799 17.002 83.6159 16.646C82.9519 16.29 82.4339 15.786 82.0619 15.134C81.6899 14.482 81.5039 13.712 81.5039 12.824C81.5039 12.176 81.6119 11.584 81.8279 11.048C82.0479 10.508 82.3559 10.042 82.7519 9.65C83.1519 9.258 83.6219 8.956 84.1619 8.744C84.7059 8.528 85.2999 8.42 85.9439 8.42C86.6439 8.42 87.2319 8.508 87.7079 8.684C88.1839 8.86 88.6139 9.11 88.9979 9.434L88.0019 11.072C87.7699 10.832 87.4899 10.654 87.1619 10.538C86.8339 10.418 86.4719 10.358 86.0759 10.358C85.6839 10.358 85.3339 10.416 85.0259 10.532C84.7219 10.644 84.4619 10.806 84.2459 11.018C84.0339 11.23 83.8719 11.486 83.7599 11.786C83.6479 12.086 83.5919 12.422 83.5919 12.794C83.5919 13.306 83.6919 13.744 83.8919 14.108C84.0959 14.472 84.3859 14.752 84.7619 14.948C85.1379 15.14 85.5879 15.236 86.1119 15.236C86.4879 15.236 86.8599 15.18 87.2279 15.068C87.5999 14.952 87.9519 14.766 88.2839 14.51L89.1959 16.184C88.8079 16.484 88.3439 16.726 87.8039 16.91C87.2639 17.09 86.6339 17.18 85.9139 17.18ZM90.0448 17V8.6H92.0368V11.714H95.3488V8.6H97.3408V17H95.3488V13.532H92.0368V17H90.0448ZM98.9661 17V8.6H104.87V10.328H100.958V11.888H104.24V13.484H100.958V15.254H104.918V17H98.9661ZM110.111 17.18C109.243 17.18 108.477 17.002 107.813 16.646C107.149 16.29 106.631 15.786 106.259 15.134C105.887 14.482 105.701 13.712 105.701 12.824C105.701 12.176 105.809 11.584 106.025 11.048C106.245 10.508 106.553 10.042 106.949 9.65C107.349 9.258 107.819 8.956 108.359 8.744C108.903 8.528 109.497 8.42 110.141 8.42C110.841 8.42 111.429 8.508 111.905 8.684C112.381 8.86 112.811 9.11 113.195 9.434L112.199 11.072C111.967 10.832 111.687 10.654 111.359 10.538C111.031 10.418 110.669 10.358 110.273 10.358C109.881 10.358 109.531 10.416 109.223 10.532C108.919 10.644 108.659 10.806 108.443 11.018C108.231 11.23 108.069 11.486 107.957 11.786C107.845 12.086 107.789 12.422 107.789 12.794C107.789 13.306 107.889 13.744 108.089 14.108C108.293 14.472 108.583 14.752 108.959 14.948C109.335 15.14 109.785 15.236 110.309 15.236C110.685 15.236 111.057 15.18 111.425 15.068C111.797 14.952 112.149 14.766 112.481 14.51L113.393 16.184C113.005 16.484 112.541 16.726 112.001 16.91C111.461 17.09 110.831 17.18 110.111 17.18ZM114.242 17V8.6H116.234V12.182L119.084 8.6H121.568L118.46 12.458L121.97 17H119.408L117.146 13.964L116.234 15.002V17H114.242Z" fill="white" fill-opacity="0.95"/>
<path d="M43.081 28.18C42.213 28.18 41.447 28.002 40.783 27.646C40.119 27.29 39.601 26.786 39.229 26.134C38.857 25.482 38.671 24.712 38.671 23.824C38.671 23.176 38.779 22.584 38.995 22.048C39.215 21.508 39.523 21.042 39.919 20.65C40.319 20.258 40.789 19.956 41.329 19.744C41.873 19.528 42.467 19.42 43.111 19.42C43.811 19.42 44.399 19.508 44.875 19.684C45.351 19.86 45.781 20.11 46.165 20.434L45.169 22.072C44.937 21.832 44.657 21.654 44.329 21.538C44.001 21.418 43.639 21.358 43.243 21.358C42.851 21.358 42.501 21.416 42.193 21.532C41.889 21.644 41.629 21.806 41.413 22.018C41.201 22.23 41.039 22.486 40.927 22.786C40.815 23.086 40.759 23.422 40.759 23.794C40.759 24.306 40.859 24.744 41.059 25.108C41.263 25.472 41.553 25.752 41.929 25.948C42.305 26.14 42.755 26.236 43.279 26.236C43.655 26.236 44.027 26.18 44.395 26.068C44.767 25.952 45.119 25.766 45.451 25.51L46.363 27.184C45.975 27.484 45.511 27.726 44.971 27.91C44.431 28.09 43.801 28.18 43.081 28.18ZM46.264 28L49.402 19.6H51.712L54.88 28H52.636L52.042 26.296H49.03L48.448 28H46.264ZM49.48 24.634H51.58L50.524 21.73L49.48 24.634ZM55.5473 28V19.6H58.9133C59.5413 19.6 60.0973 19.71 60.5813 19.93C61.0653 20.146 61.4453 20.462 61.7213 20.878C62.0013 21.294 62.1413 21.794 62.1413 22.378C62.1413 22.97 62.0133 23.472 61.7573 23.884C61.5013 24.296 61.1293 24.61 60.6413 24.826C60.1533 25.042 59.5613 25.15 58.8653 25.15H57.5393V28H55.5473ZM57.5393 23.482H58.8173C59.2373 23.482 59.5633 23.4 59.7953 23.236C60.0313 23.068 60.1493 22.792 60.1493 22.408C60.1493 22.024 60.0273 21.746 59.7833 21.574C59.5433 21.398 59.2253 21.31 58.8293 21.31H57.5393V23.482ZM63.074 28V19.6H65.066V28H63.074ZM68.1626 28V21.418H65.9246V19.6H72.4046V21.418H70.1666V28H68.1626ZM71.7771 28L74.9151 19.6H77.2251L80.3931 28H78.1491L77.5551 26.296H74.5431L73.9611 28H71.7771ZM74.9931 24.634H77.0931L76.0371 21.73L74.9931 24.634ZM81.0604 28V19.6H83.0524V26.182H86.4244V28H81.0604Z" fill="white" fill-opacity="0.95"/>
<defs>
<linearGradient id="paint0_linear_1705_10" x1="22" y1="0" x2="22" y2="28" gradientUnits="userSpaceOnUse">
<stop stop-color="#EF2A5F"/>
<stop offset="0.435" stop-color="#F58357"/>
<stop offset="0.95" stop-color="#FFBB37"/>
</linearGradient>
<linearGradient id="paint1_linear_1705_10" x1="31" y1="14" x2="31" y2="34" gradientUnits="userSpaceOnUse">
<stop stop-color="#EF2A5F"/>
<stop offset="0.435" stop-color="#F58357"/>
<stop offset="0.95" stop-color="#FFBB37"/>
</linearGradient>
<linearGradient id="paint2_linear_1705_10" x1="13" y1="7" x2="13" y2="38" gradientUnits="userSpaceOnUse">
<stop stop-color="#EF2A5F"/>
<stop offset="0.435" stop-color="#F58357"/>
<stop offset="0.95" stop-color="#FFBB37"/>
</linearGradient>
<linearGradient id="paint3_linear_1705_10" x1="3.75" y1="15" x2="3.75" y2="32" gradientUnits="userSpaceOnUse">
<stop stop-color="#EF2A5F"/>
<stop offset="0.435" stop-color="#F58357"/>
<stop offset="0.95" stop-color="#FFBB37"/>
</linearGradient>
</defs>
</svg>
