<svg width="124" height="38" viewBox="0 0 124 38" fill="none" xmlns="http://www.w3.org/2000/svg">
<rect x="18" width="8" height="28" rx="4" fill="url(#paint0_linear_1705_10)"/>
<rect x="27" y="14" width="8" height="20" rx="4" fill="url(#paint1_linear_1705_10)"/>
<rect x="9" y="7" width="8" height="31" rx="4" fill="url(#paint2_linear_1705_10)"/>
<rect y="15" width="7.5" height="17" rx="3.75" fill="url(#paint3_linear_1705_10)"/>
<path d="M42.924 17.18C42.288 17.18 41.67 17.086 41.07 16.898C40.47 16.71 39.962 16.438 39.546 16.082L40.482 14.594C40.658 14.782 40.882 14.944 41.154 15.08C41.426 15.216 41.716 15.322 42.024 15.398C42.336 15.47 42.638 15.506 42.93 15.506C43.342 15.506 43.676 15.438 43.932 15.302C44.192 15.162 44.322 14.96 44.322 14.696C44.322 14.48 44.228 14.298 44.04 14.15C43.856 14.002 43.51 13.86 43.002 13.724L42.282 13.52C41.418 13.28 40.796 12.952 40.416 12.536C40.036 12.12 39.846 11.62 39.846 11.036C39.846 10.66 39.926 10.314 40.086 9.998C40.246 9.678 40.47 9.402 40.758 9.17C41.046 8.934 41.384 8.752 41.772 8.624C42.164 8.492 42.59 8.426 43.05 8.426C43.686 8.426 44.276 8.52 44.82 8.708C45.368 8.892 45.808 9.144 46.14 9.464L45.168 10.904C45.016 10.744 44.828 10.604 44.604 10.484C44.38 10.364 44.136 10.27 43.872 10.202C43.608 10.134 43.342 10.1 43.074 10.1C42.81 10.1 42.58 10.134 42.384 10.202C42.188 10.27 42.034 10.368 41.922 10.496C41.814 10.62 41.76 10.768 41.76 10.94C41.76 11.08 41.8 11.198 41.88 11.294C41.964 11.386 42.102 11.474 42.294 11.558C42.49 11.642 42.754 11.734 43.086 11.834L43.818 12.05C44.678 12.302 45.3 12.618 45.684 12.998C46.068 13.378 46.26 13.872 46.26 14.48C46.26 15.012 46.124 15.482 45.852 15.89C45.58 16.294 45.194 16.61 44.694 16.838C44.198 17.066 43.608 17.18 42.924 17.18ZM51.2541 17.18C50.6101 17.18 50.0141 17.07 49.4661 16.85C48.9221 16.626 48.4481 16.316 48.0441 15.92C47.6401 15.524 47.3261 15.06 47.1021 14.528C46.8821 13.996 46.7721 13.42 46.7721 12.8C46.7721 12.176 46.8821 11.598 47.1021 11.066C47.3261 10.534 47.6401 10.07 48.0441 9.674C48.4481 9.278 48.9221 8.97 49.4661 8.75C50.0141 8.53 50.6101 8.42 51.2541 8.42C51.9021 8.42 52.4981 8.532 53.0421 8.756C53.5861 8.98 54.0601 9.292 54.4641 9.692C54.8681 10.092 55.1801 10.558 55.4001 11.09C55.6241 11.618 55.7361 12.188 55.7361 12.8C55.7361 13.42 55.6241 13.996 55.4001 14.528C55.1801 15.06 54.8681 15.524 54.4641 15.92C54.0601 16.316 53.5861 16.626 53.0421 16.85C52.4981 17.07 51.9021 17.18 51.2541 17.18ZM51.2541 15.308C51.6021 15.308 51.9201 15.25 52.2081 15.134C52.5001 15.018 52.7541 14.85 52.9701 14.63C53.1861 14.41 53.3521 14.146 53.4681 13.838C53.5881 13.526 53.6481 13.18 53.6481 12.8C53.6481 12.288 53.5441 11.844 53.3361 11.468C53.1321 11.092 52.8481 10.802 52.4841 10.598C52.1241 10.39 51.7141 10.286 51.2541 10.286C50.9101 10.286 50.5921 10.346 50.3001 10.466C50.0081 10.582 49.7541 10.75 49.5381 10.97C49.3261 11.19 49.1601 11.454 49.0401 11.762C48.9201 12.07 48.8601 12.416 48.8601 12.8C48.8601 13.308 48.9641 13.75 49.1721 14.126C49.3801 14.502 49.6641 14.794 50.0241 15.002C50.3881 15.206 50.7981 15.308 51.2541 15.308ZM60.3884 17.18C59.6004 17.18 58.9384 17.024 58.4024 16.712C57.8704 16.4 57.4684 15.972 57.1964 15.428C56.9244 14.88 56.7884 14.252 56.7884 13.544V8.6H58.7804V13.616C58.7804 14.188 58.9224 14.614 59.2064 14.894C59.4904 15.17 59.8844 15.308 60.3884 15.308C60.8884 15.308 61.2784 15.17 61.5584 14.894C61.8424 14.614 61.9844 14.188 61.9844 13.616V8.6H63.9824V13.544C63.9824 14.248 63.8464 14.874 63.5744 15.422C63.3024 15.966 62.8984 16.396 62.3624 16.712C61.8304 17.024 61.1724 17.18 60.3884 17.18ZM65.5584 17V8.6H67.5264L70.9824 13.748V8.6H72.9144V17H70.9464L67.4844 11.78V17H65.5584ZM74.5383 17V8.6H77.4183C78.2903 8.6 79.0543 8.778 79.7103 9.134C80.3703 9.49 80.8843 9.984 81.2523 10.616C81.6203 11.244 81.8043 11.972 81.8043 12.8C81.8043 13.424 81.6983 13.994 81.4863 14.51C81.2783 15.022 80.9803 15.464 80.5923 15.836C80.2043 16.208 79.7423 16.496 79.2063 16.7C78.6703 16.9 78.0743 17 77.4183 17H74.5383ZM76.5303 15.146H77.3163C77.6763 15.146 78.0023 15.096 78.2943 14.996C78.5863 14.896 78.8383 14.746 79.0503 14.546C79.2663 14.346 79.4303 14.1 79.5423 13.808C79.6583 13.516 79.7163 13.18 79.7163 12.8C79.7163 12.292 79.6163 11.864 79.4163 11.516C79.2163 11.164 78.9343 10.9 78.5703 10.724C78.2103 10.544 77.7923 10.454 77.3163 10.454H76.5303V15.146ZM86.9139 17.18C86.0459 17.18 85.2799 17.002 84.6159 16.646C83.9519 16.29 83.4339 15.786 83.0619 15.134C82.6899 14.482 82.5039 13.712 82.5039 12.824C82.5039 12.176 82.6119 11.584 82.8279 11.048C83.0479 10.508 83.3559 10.042 83.7519 9.65C84.1519 9.258 84.6219 8.956 85.1619 8.744C85.7059 8.528 86.2999 8.42 86.9439 8.42C87.6439 8.42 88.2319 8.508 88.7079 8.684C89.1839 8.86 89.6139 9.11 89.9979 9.434L89.0019 11.072C88.7699 10.832 88.4899 10.654 88.1619 10.538C87.8339 10.418 87.4719 10.358 87.0759 10.358C86.6839 10.358 86.3339 10.416 86.0259 10.532C85.7219 10.644 85.4619 10.806 85.2459 11.018C85.0339 11.23 84.8719 11.486 84.7599 11.786C84.6479 12.086 84.5919 12.422 84.5919 12.794C84.5919 13.306 84.6919 13.744 84.8919 14.108C85.0959 14.472 85.3859 14.752 85.7619 14.948C86.1379 15.14 86.5879 15.236 87.1119 15.236C87.4879 15.236 87.8599 15.18 88.2279 15.068C88.5999 14.952 88.9519 14.766 89.2839 14.51L90.1959 16.184C89.8079 16.484 89.3439 16.726 88.8039 16.91C88.2639 17.09 87.6339 17.18 86.9139 17.18ZM91.0448 17V8.6H93.0368V11.714H96.3488V8.6H98.3408V17H96.3488V13.532H93.0368V17H91.0448ZM99.9661 17V8.6H105.87V10.328H101.958V11.888H105.24V13.484H101.958V15.254H105.918V17H99.9661ZM111.111 17.18C110.243 17.18 109.477 17.002 108.813 16.646C108.149 16.29 107.631 15.786 107.259 15.134C106.887 14.482 106.701 13.712 106.701 12.824C106.701 12.176 106.809 11.584 107.025 11.048C107.245 10.508 107.553 10.042 107.949 9.65C108.349 9.258 108.819 8.956 109.359 8.744C109.903 8.528 110.497 8.42 111.141 8.42C111.841 8.42 112.429 8.508 112.905 8.684C113.381 8.86 113.811 9.11 114.195 9.434L113.199 11.072C112.967 10.832 112.687 10.654 112.359 10.538C112.031 10.418 111.669 10.358 111.273 10.358C110.881 10.358 110.531 10.416 110.223 10.532C109.919 10.644 109.659 10.806 109.443 11.018C109.231 11.23 109.069 11.486 108.957 11.786C108.845 12.086 108.789 12.422 108.789 12.794C108.789 13.306 108.889 13.744 109.089 14.108C109.293 14.472 109.583 14.752 109.959 14.948C110.335 15.14 110.785 15.236 111.309 15.236C111.685 15.236 112.057 15.18 112.425 15.068C112.797 14.952 113.149 14.766 113.481 14.51L114.393 16.184C114.005 16.484 113.541 16.726 113.001 16.91C112.461 17.09 111.831 17.18 111.111 17.18ZM115.242 17V8.6H117.234V12.182L120.084 8.6H122.568L119.46 12.458L122.97 17H120.408L118.146 13.964L117.234 15.002V17H115.242Z" fill="white" fill-opacity="0.95"/>
<path d="M44.5166 30.195C43.572 30.195 42.7465 30 42.0401 29.61C41.3338 29.22 40.7835 28.6697 40.3891 27.959C39.9991 27.244 39.8041 26.4098 39.8041 25.4565C39.8041 24.7632 39.919 24.1283 40.1486 23.552C40.3826 22.9713 40.7098 22.4687 41.1301 22.044C41.5548 21.6193 42.0553 21.29 42.6316 21.056C43.208 20.822 43.8406 20.705 44.5296 20.705C45.223 20.705 45.821 20.7917 46.3236 20.965C46.8306 21.1383 47.2726 21.3853 47.6496 21.706L46.8956 22.8955C46.6096 22.6312 46.276 22.434 45.8946 22.304C45.5133 22.174 45.093 22.109 44.6336 22.109C44.1266 22.109 43.6695 22.187 43.2621 22.343C42.8548 22.499 42.506 22.7222 42.2156 23.0125C41.9296 23.2985 41.7086 23.6473 41.5526 24.059C41.401 24.4663 41.3251 24.9278 41.3251 25.4435C41.3251 26.1455 41.4616 26.7457 41.7346 27.244C42.012 27.7423 42.402 28.1237 42.9046 28.388C43.4116 28.648 44.0096 28.778 44.6986 28.778C45.158 28.778 45.6 28.7108 46.0246 28.5765C46.4536 28.4378 46.8545 28.2147 47.2271 27.907L47.9031 29.1355C47.4655 29.4778 46.965 29.74 46.4016 29.922C45.8426 30.104 45.2143 30.195 44.5166 30.195ZM50.3376 30L53.8736 20.9H55.4531L59.0801 30H57.4356L56.5971 27.829H52.7426L51.9366 30H50.3376ZM53.1196 26.5745H56.2071L54.6341 22.6095L53.1196 26.5745ZM62.3477 30V20.9H65.6432C66.2889 20.9 66.8587 21.0127 67.3527 21.238C67.8511 21.459 68.2411 21.7797 68.5227 22.2C68.8044 22.616 68.9452 23.1165 68.9452 23.7015C68.9452 24.3038 68.8152 24.813 68.5552 25.229C68.2952 25.6407 67.9161 25.9548 67.4177 26.1715C66.9237 26.3838 66.3214 26.49 65.6107 26.49H63.8037V30H62.3477ZM63.8037 25.242H65.6302C66.2196 25.242 66.6767 25.1185 67.0017 24.8715C67.3267 24.6202 67.4892 24.241 67.4892 23.734C67.4892 23.2313 67.3224 22.8457 66.9887 22.577C66.6551 22.3083 66.2066 22.174 65.6432 22.174H63.8037V25.242ZM72.537 30V20.9H73.993V30H72.537ZM80.05 30V22.2325H77.489V20.9H84.067V22.2325H81.506V30H80.05ZM85.9149 30L89.4509 20.9H91.0304L94.6574 30H93.0129L92.1744 27.829H88.3199L87.5139 30H85.9149ZM88.6969 26.5745H91.7844L90.2114 22.6095L88.6969 26.5745ZM97.9251 30V20.9H99.3811V28.661H103.346V30H97.9251Z" fill="white" fill-opacity="0.95"/>
<defs>
<linearGradient id="paint0_linear_1705_10" x1="22" y1="0" x2="22" y2="28" gradientUnits="userSpaceOnUse">
<stop stop-color="#EF2A5F"/>
<stop offset="0.435" stop-color="#F58357"/>
<stop offset="0.95" stop-color="#FFBB37"/>
</linearGradient>
<linearGradient id="paint1_linear_1705_10" x1="31" y1="14" x2="31" y2="34" gradientUnits="userSpaceOnUse">
<stop stop-color="#EF2A5F"/>
<stop offset="0.435" stop-color="#F58357"/>
<stop offset="0.95" stop-color="#FFBB37"/>
</linearGradient>
<linearGradient id="paint2_linear_1705_10" x1="13" y1="7" x2="13" y2="38" gradientUnits="userSpaceOnUse">
<stop stop-color="#EF2A5F"/>
<stop offset="0.435" stop-color="#F58357"/>
<stop offset="0.95" stop-color="#FFBB37"/>
</linearGradient>
<linearGradient id="paint3_linear_1705_10" x1="3.75" y1="15" x2="3.75" y2="32" gradientUnits="userSpaceOnUse">
<stop stop-color="#EF2A5F"/>
<stop offset="0.435" stop-color="#F58357"/>
<stop offset="0.95" stop-color="#FFBB37"/>
</linearGradient>
</defs>
</svg>
